<?xml version="1.0" encoding="UTF-8" standalone="no"?>
<svg
   width="275"
   height="100"
   version="1.1"
   id="svg1"
   sodipodi:docname="unity-logo.svg"
   inkscape:version="1.3-alpha (2a5ddc9d23, 2023-03-29)"
   xmlns:inkscape="http://www.inkscape.org/namespaces/inkscape"
   xmlns:sodipodi="http://sodipodi.sourceforge.net/DTD/sodipodi-0.dtd"
   xmlns="http://www.w3.org/2000/svg"
   xmlns:svg="http://www.w3.org/2000/svg">
  <defs
     id="defs1" />
  <sodipodi:namedview
     id="namedview1"
     pagecolor="#ffffff"
     bordercolor="#666666"
     borderopacity="1.0"
     inkscape:showpageshadow="2"
     inkscape:pageopacity="0.0"
     inkscape:pagecheckerboard="0"
     inkscape:deskcolor="#d1d1d1"
     inkscape:zoom="1.7536248"
     inkscape:cx="191.318"
     inkscape:cy="33.359473"
     inkscape:window-width="1920"
     inkscape:window-height="1017"
     inkscape:window-x="-8"
     inkscape:window-y="-8"
     inkscape:window-maximized="1"
     inkscape:current-layer="svg1" />
  <path
     fill="#110b09"
     d="M 82.775,79.842 64.9,49.775 82.775,19.708 91.392,49.775 Z M 42.992,76.908 20.533,54.633 h 35.75 L 74.158,84.7 Z m 0,-54.358 31.075,-7.792 -17.875,30.067 H 20.442 Z M 88.642,0 48.033,10.542 41.983,20.9 29.792,20.808 0,49.775 29.792,78.742 41.983,78.65 48.033,89.008 88.642,99.642 99.55,60.133 93.408,49.867 99.55,39.6 Z m 92.216,29.242 c -5.408,0 -9.075,2.291 -11.825,6.508 h -0.183 v -5.408 h -9.533 v 39.783 h 9.716 v -22.55 c 0,-5.408 3.392,-9.167 8.067,-9.167 4.4,0 7.7,2.659 7.7,7.334 v 24.475 h 9.717 V 44.183 c 0.091,-8.708 -5.409,-14.941 -13.659,-14.941 z m -36.3,24.108 c 0,5.317 -3.025,8.983 -7.975,8.983 -4.491,0 -7.333,-2.566 -7.333,-7.241 v -24.75 h -9.717 v 26.583 c 0,8.708 4.95,14.392 13.842,14.392 5.592,0 8.708,-2.109 11.367,-5.775 h 0.275 v 4.675 h 9.35 V 30.342 H 144.65 V 53.35 Z m 55.184,-23.008 h 9.716 v 39.783 h -9.716 z m 0,-12.375 h 9.716 v 7.975 h -9.716 z m 64.808,12.375 -5.775,17.966 c -1.283,3.667 -2.292,8.709 -2.292,8.709 h -0.275 c 0,0 -1.283,-5.042 -2.566,-8.709 l -6.509,-17.966 h -10.45 l 10.725,28.325 c 2.292,6.05 3.025,8.616 3.025,10.816 0,3.3 -1.741,5.409 -5.866,5.409 h -3.759 v 8.341 h 6.234 c 8.066,0 10.908,-3.208 13.933,-12.008 L 275,30.433 H 264.55 Z M 227.608,58.483 V 37.4 h 6.234 v -6.967 h -6.234 V 17.967 h -9.716 v 12.375 h -5.5 v 6.966 h 5.5 v 23.375 c 0,7.517 5.683,9.534 10.816,9.534 4.217,0 5.317,-0.184 5.317,-0.184 v -7.7 h -2.475 c -2.292,0.092 -3.942,-0.916 -3.942,-3.85 z"
     id="path1"
     style="fill:#ffffff" />
</svg>
