<?xml version="1.0" encoding="UTF-8" standalone="no"?>
<svg
   width="275"
   height="100"
   version="1.1"
   id="svg1"
   sodipodi:docname="unity-logo.svg"
   inkscape:version="1.3-alpha (2a5ddc9d23, 2023-03-29)"
   xmlns:inkscape="http://www.inkscape.org/namespaces/inkscape"
   xmlns:sodipodi="http://sodipodi.sourceforge.net/DTD/sodipodi-0.dtd"
   xmlns="http://www.w3.org/2000/svg"
   xmlns:svg="http://www.w3.org/2000/svg">
  <defs
     id="defs1" />
  <sodipodi:namedview
     id="namedview1"
     pagecolor="#000000"
     bordercolor="#737373"
     borderopacity="1"
     inkscape:showpageshadow="2"
     inkscape:pageopacity="0.0"
     inkscape:pagecheckerboard="0"
     inkscape:deskcolor="#d1d1d1"
     inkscape:zoom="2.48"
     inkscape:cx="175.60484"
     inkscape:cy="2.6209678"
     inkscape:window-width="1920"
     inkscape:window-height="1017"
     inkscape:window-x="-8"
     inkscape:window-y="-8"
     inkscape:window-maximized="1"
     inkscape:current-layer="svg1" />
  <path
     fill="#110b09"
     d="M 82.775,79.842 64.9,49.775 82.775,19.708 91.392,49.775 Z M 42.992,76.908 20.533,54.633 h 35.75 L 74.158,84.7 Z m 0,-54.358 31.075,-7.792 -17.875,30.067 H 20.442 Z M 88.642,0 48.033,10.542 41.983,20.9 29.792,20.808 0,49.775 29.792,78.742 41.983,78.65 48.033,89.008 88.642,99.642 99.55,60.133 93.408,49.867 99.55,39.6 Z"
     id="path1"
     style="fill:#ffffff"
     sodipodi:nodetypes="cccccccccccccccccccccccccccc" />
  <g
     aria-label="NK"
     id="text1"
     style="font-size:80.7912px;line-height:1.25;letter-spacing:0px;word-spacing:0px;fill:#ffffff;stroke-width:2.01979"
     transform="matrix(0.92014461,0,0,0.92014461,21.102174,6.5179205)">
    <path
       d="M 112.77135,81.621544 V 10.929245 h 20.1978 v 10.0989 h 10.0989 v 10.0989 h 10.0989 v 10.0989 h 10.0989 v -30.2967 h 20.1978 v 70.692299 h -20.1978 v -20.1978 h -10.0989 v -10.0989 h -10.0989 V 41.225945 h -10.0989 v 40.395599 z"
       style="font-family:'Press Start 2P';-inkscape-font-specification:'Press Start 2P'"
       id="path2" />
    <path
       d="M 193.56255,81.621544 V 10.929245 h 20.1978 v 30.2967 h 10.0989 v -10.0989 h 10.0989 v -10.0989 h 10.09889 v -10.0989 h 20.1978 v 10.0989 h -10.0989 v 10.0989 h -10.0989 v 10.0989 h -10.09889 v 10.098899 h 10.09889 v 10.0989 h 10.0989 v 10.0989 h 10.0989 v 10.0989 h -30.29669 v -10.0989 h -10.0989 v -10.0989 h -10.0989 v 20.1978 z"
       style="font-family:'Press Start 2P';-inkscape-font-specification:'Press Start 2P'"
       id="path3" />
  </g>
</svg>
