<?xml version="1.0" encoding="UTF-8" standalone="no"?>
<svg
   width="275"
   height="100"
   version="1.1"
   id="svg1"
   sodipodi:docname="unity-logo2.svg"
   inkscape:version="1.3-alpha (2a5ddc9d23, 2023-03-29)"
   xmlns:inkscape="http://www.inkscape.org/namespaces/inkscape"
   xmlns:sodipodi="http://sodipodi.sourceforge.net/DTD/sodipodi-0.dtd"
   xmlns="http://www.w3.org/2000/svg"
   xmlns:svg="http://www.w3.org/2000/svg">
  <defs
     id="defs1" />
  <sodipodi:namedview
     id="namedview1"
     pagecolor="#000000"
     bordercolor="#737373"
     borderopacity="1"
     inkscape:showpageshadow="2"
     inkscape:pageopacity="0.0"
     inkscape:pagecheckerboard="0"
     inkscape:deskcolor="#d1d1d1"
     inkscape:zoom="3.5072496"
     inkscape:cx="138.14243"
     inkscape:cy="61.444158"
     inkscape:window-width="1920"
     inkscape:window-height="1017"
     inkscape:window-x="-8"
     inkscape:window-y="-8"
     inkscape:window-maximized="1"
     inkscape:current-layer="svg1" />
  <g
     aria-label="NK"
     id="text1"
     style="font-size:80.7912px;line-height:1.25;letter-spacing:0px;word-spacing:0px;fill:#ffffff;stroke-width:2.01979"
     transform="matrix(0.92014461,0,0,0.92014461,21.102174,6.5179205)">
    <path
       d="M 112.77135,81.621544 V 10.929245 h 20.1978 v 10.0989 h 10.0989 v 10.0989 h 10.0989 v 10.0989 h 10.0989 v -30.2967 h 20.1978 v 70.692299 h -20.1978 v -20.1978 h -10.0989 v -10.0989 h -10.0989 V 41.225945 h -10.0989 v 40.395599 z"
       style="font-family:'Press Start 2P';-inkscape-font-specification:'Press Start 2P'"
       id="path2" />
    <path
       d="M 193.56255,81.621544 V 10.929245 h 20.1978 v 30.2967 h 10.0989 v -10.0989 h 10.0989 v -10.0989 h 10.09889 v -10.0989 h 20.1978 v 10.0989 h -10.0989 v 10.0989 h -10.0989 v 10.0989 h -10.09889 v 10.098899 h 10.09889 v 10.0989 h 10.0989 v 10.0989 h 10.0989 v 10.0989 h -30.29669 v -10.0989 h -10.0989 v -10.0989 h -10.0989 v 20.1978 z"
       style="font-family:'Press Start 2P';-inkscape-font-specification:'Press Start 2P'"
       id="path3" />
  </g>
  <path
     fill="#110b09"
     d="M 86.446645,50.023162 55.961111,47.244 43.839103,19.134425 69.569125,28.473278 Z M 63.932643,76.704049 36.613437,81.17533 54.976963,55.844909 85.462497,58.62406 Z M 25.417646,48.782242 35.858818,22.761779 47.980826,50.871357 29.6173,76.201778 Z M 32.888805,4.8540914 19.498844,39.042386 l 4.231417,9.607231 -6.327279,8.590587 5.221264,35.98826 L 58.45173,86.998881 64.648631,78.31377 75.095396,79.347622 103.48947,56.036697 81.098692,28.013514 70.669855,27.092104 66.550172,17.466433 Z"
     id="path1-2"
     style="fill:#008080;stroke-width:0.875149"
     sodipodi:nodetypes="cccccccccccccccccccccccccccc"
     inkscape:export-filename="..\..\..\..\Desktop\path1.png"
     inkscape:export-xdpi="643.41577"
     inkscape:export-ydpi="643.41577" />
</svg>
